<svg id="single-01" xmlns="http://www.w3.org/2000/svg" width="21.516" height="23" viewBox="0 0 21.516 23">
  <path id="Path_461" data-name="Path 461" d="M22.321,42.437A24.332,24.332,0,0,0,13.758,41,24.332,24.332,0,0,0,5.2,42.437,3.485,3.485,0,0,0,3,45.713v3.417a.379.379,0,0,0,.371.387H24.145a.379.379,0,0,0,.371-.387V45.713A3.485,3.485,0,0,0,22.321,42.437Z" transform="translate(-3 -26.516)" fill="#a5a5a5"/>
  <path id="Path_462" data-name="Path 462" d="M22.339,14.161a5.594,5.594,0,0,0,5.339-5.806V6.806A5.594,5.594,0,0,0,22.339,1,5.594,5.594,0,0,0,17,6.806V8.355A5.594,5.594,0,0,0,22.339,14.161Z" transform="translate(-11.581 -1)" fill="#a5a5a5"/>
</svg>