<svg id="Component_135_3" data-name="Component 135 – 3" xmlns="http://www.w3.org/2000/svg" width="71" height="130" viewBox="0 0 71 130">
  <path id="Path_916" data-name="Path 916" d="M109.6,99.02c6.246-2.731,12.746-8.843,12.746-20.029,0-16-10.579-24.841-30.464-24.841H54.15v93.384H94.175c19.374,0,30.975-9.757,30.975-26.142C125.15,110.076,118.777,102.142,109.6,99.02Zm-37.475-29H90.1c9.305,0,14.532,3.772,14.532,11.054,0,7.413-5.227,11.054-14.532,11.054H72.123ZM92.9,131.536H72.123v-23.93H92.9c9.177,0,14.15,4.942,14.15,11.964C107.05,126.723,102.077,131.536,92.9,131.536Z" transform="translate(-54.149 -54.15)" fill="#0032FF"/>
  <rect id="Rectangle_2043" data-name="Rectangle 2043" width="69.571" height="18.338" transform="translate(0 111.662)" fill="#0032FF"/>
</svg>
