<svg id="B_logo" data-name="B logo" xmlns="http://www.w3.org/2000/svg" width="32" height="58.591" viewBox="0 0 32 58.591">
  <path id="Path_916" data-name="Path 916" d="M79.14,74.373a9.36,9.36,0,0,0,5.745-9.027c0-7.21-4.768-11.2-13.73-11.2h-17V96.238H72.189c8.732,0,13.96-4.4,13.96-11.782A10.151,10.151,0,0,0,79.14,74.373ZM62.251,61.3h8.1c4.194,0,6.55,1.7,6.55,4.982,0,3.341-2.356,4.982-6.55,4.982h-8.1Zm9.364,27.726H62.251V78.243h9.364c4.136,0,6.377,2.227,6.377,5.392C77.992,86.859,75.751,89.028,71.614,89.028Z" transform="translate(-54.149 -54.15)"/>
  <rect id="Rectangle_2043" data-name="Rectangle 2043" width="31.355" height="8.265" transform="translate(0 50.326)"/>
</svg>
