<svg xmlns="http://www.w3.org/2000/svg" width="112.082" height="162.471" viewBox="0 0 112.082 162.471">
  <g id="Layer_2" transform="translate(-286.79 -166.16)">
    <g id="Group_1139" data-name="Group 1139" transform="translate(286.79 220.476)">
      <path id="Path_945" data-name="Path 945" d="M286.79,280.14H318.8c16.874,0,25.847,7.353,25.847,20.658,0,9.3-5.514,14.387-10.817,16.655,7.787,2.6,13.2,9.192,13.2,18.6,0,13.624-9.841,21.74-26.281,21.74H286.79V280.14Zm30.5,31.58c7.9,0,12.328-3.031,12.328-9.192,0-6.057-4.437-9.192-12.328-9.192H302.039V311.72h15.249Zm-15.249,32.772h17.627c7.787,0,12-4,12-9.95,0-5.838-4.217-9.95-12-9.95H302.039Z" transform="translate(-286.79 -280.14)" fill="#0032ff"/>
      <rect id="Rectangle_2111" data-name="Rectangle 2111" width="15.249" height="59.029" transform="translate(59.031 92.906) rotate(90)" fill="#0032ff"/>
    </g>
    <circle id="Ellipse_295" data-name="Ellipse 295" cx="27.163" cy="27.163" r="27.163" transform="translate(344.547 166.16)" fill="#0032ff"/>
    <path id="Path_946" data-name="Path 946" d="M452.955,224.336l-4.919-4.925,1.769-1.767,2.963,2.966,10.5-12.88,1.938,1.58Z" transform="translate(-84.869 -22.174)" fill="#fff"/>
  </g>
</svg>
