<svg xmlns="http://www.w3.org/2000/svg" width="133.329" height="30" viewBox="0 0 133.329 30">
  <g id="Logo" transform="translate(-54.15 -52.952)">
    <g id="Group_737" data-name="Group 737" transform="translate(54.15 52.952)">
      <path id="Path_788" data-name="Path 788" d="M136.81,75.924c-4.337,0-7.452,3.505-7.452,8.109,0,4.841,3.085,8.138,7.6,8.138a6.964,6.964,0,0,0,6.754-4.456l-3.435-1.247a3.2,3.2,0,0,1-3.289,2.287c-2.009,0-3.435-1.426-3.726-3.8H143.8V83.736C143.8,79.37,141.351,75.924,136.81,75.924ZM133.4,82.132a3.409,3.409,0,0,1,3.377-2.881,2.77,2.77,0,0,1,2.969,2.881Z" transform="translate(-111.059 -70.221)" fill="#000"/>
      <path id="Path_789" data-name="Path 789" d="M207.836,75.924a5.345,5.345,0,0,0-4.192,1.9v-1.6h-4.075V91.845h4.075v-9.03a2.838,2.838,0,0,1,2.824-3.089c1.746,0,2.445,1.248,2.445,3v9.119h4.075V81.538C212.989,78.152,211.038,75.924,207.836,75.924Z" transform="translate(-164.187 -70.221)" fill="#000"/>
      <path id="Path_790" data-name="Path 790" d="M272.259,75.924c-4.337,0-7.452,3.505-7.452,8.109,0,4.841,3.085,8.138,7.6,8.138a6.964,6.964,0,0,0,6.754-4.456l-3.435-1.247a3.2,3.2,0,0,1-3.289,2.287c-2.008,0-3.435-1.426-3.726-3.8h10.538V83.736C279.245,79.37,276.8,75.924,272.259,75.924Zm-3.406,6.208a3.409,3.409,0,0,1,3.377-2.881,2.77,2.77,0,0,1,2.969,2.881Z" transform="translate(-213.552 -70.221)" fill="#000"/>
      <rect id="Rectangle_1903" data-name="Rectangle 1903" width="4.163" height="3.482" transform="translate(76.428 0.063)" fill="#000"/>
      <path id="Path_791" data-name="Path 791" d="M338.968,58.952v-.624c0-1.545.67-1.931,1.951-1.931.436,0,.669,0,1.048.03V53.012a14.33,14.33,0,0,0-1.572-.06c-3.755,0-5.5,1.842-5.5,5.139V74.576h4.075V62.427h4.757V74.576H347.8V58.952h-8.833Z" transform="translate(-267.241 -52.952)" fill="#000"/>
      <path id="Path_792" data-name="Path 792" d="M404.305,79.232c-1.273,0-2.05-.187-2.05-1.584V70.1h3.324V66.465h-3.324V62.729h-4.286V78.548c0,3.354,1.739,4.441,5.032,4.441a14.336,14.336,0,0,0,2.8-.248v-3.6A11.3,11.3,0,0,1,404.305,79.232Z" transform="translate(-314.807 -60.191)" fill="#000"/>
      <path id="Path_793" data-name="Path 793" d="M66.813,64.4a4.743,4.743,0,0,0,2.911-4.574c0-3.653-2.416-5.673-6.957-5.673H54.15V75.477h9.141c4.425,0,7.074-2.228,7.074-5.97A5.144,5.144,0,0,0,66.813,64.4Zm-8.558-6.623h4.1c2.125,0,3.319.861,3.319,2.525,0,1.693-1.194,2.525-3.319,2.525h-4.1ZM63,71.823H58.255V66.358H63c2.1,0,3.231,1.129,3.231,2.732C66.231,70.724,65.1,71.823,63,71.823Z" transform="translate(-54.15 -53.839)" fill="#000"/>
      <rect id="Rectangle_1904" data-name="Rectangle 1904" width="15.888" height="4.188" transform="translate(0 25.812)" fill="#000"/>
    </g>
    <g id="Group_738" data-name="Group 738" transform="translate(149.416 58.65)">
      <path id="Path_794" data-name="Path 794" d="M548.4,105.761a1.15,1.15,0,0,0-1.146.968h2.158A.933.933,0,0,0,548.4,105.761Z" transform="translate(-520.602 -98.318)" fill="#000"/>
      <path id="Path_795" data-name="Path 795" d="M489.78,105.761c-.725,0-1.182.582-1.182,1.541s.457,1.54,1.182,1.54,1.182-.582,1.182-1.54S490.505,105.761,489.78,105.761Z" transform="translate(-477.173 -98.318)" fill="#000"/>
      <path id="Path_796" data-name="Path 796" d="M469.309,99.762h-1.361v1.969h1.361c.824,0,1.263-.358,1.263-.985S470.133,99.762,469.309,99.762Z" transform="translate(-461.884 -93.877)" fill="#000"/>
      <path id="Path_797" data-name="Path 797" d="M444.591,77.092V93.347h38.063V77.092Zm7.487,8.84h-1.424v2.489h-1.146V81.992h2.57c1.433,0,2.328.671,2.328,1.969C454.406,85.243,453.511,85.932,452.078,85.932ZM457.2,88.52a2.451,2.451,0,1,1,2.265-2.444A2.251,2.251,0,0,1,457.2,88.52Zm5.477,0a2.448,2.448,0,0,1,0-4.889,1.97,1.97,0,0,1,1.961,1.325l-.9.492a1.076,1.076,0,0,0-1.057-.9c-.734,0-1.235.564-1.235,1.522s.5,1.513,1.235,1.513a1.068,1.068,0,0,0,1.057-.9l.922.465A1.994,1.994,0,0,1,462.674,88.52Zm6.048-.1L467.316,86.3l-.618.626v1.5h-1.075V81.992H466.7V85.7l1.809-1.979h1.316l-1.773,1.827,1.916,2.874Zm5.763-2.113h-3.3a1.272,1.272,0,0,0,1.254,1.3,1.066,1.066,0,0,0,1.092-.752l.922.349a2.078,2.078,0,0,1-2.014,1.316,2.26,2.26,0,0,1-2.283-2.444,2.286,2.286,0,0,1,2.238-2.444,2.082,2.082,0,0,1,2.086,2.319Zm3.256,2.1a4.325,4.325,0,0,1-.743.063c-.9,0-1.379-.277-1.379-1.236v-4.9h1.057V83.72h.985v.913h-.985v2.436c0,.42.242.465.627.465a3.352,3.352,0,0,0,.439-.027Z" transform="translate(-444.591 -77.092)" fill="#000"/>
    </g>
  </g>
</svg>
