<svg id="Apple_logo" data-name="Apple logo" xmlns="http://www.w3.org/2000/svg" width="30" height="30" viewBox="0 0 30 30">
  <rect id="Rectangle_2059" data-name="Rectangle 2059" width="30" height="30" fill="#fff" opacity="0"/>
  <g id="Group_996" data-name="Group 996" transform="translate(4.75 1.25)">
    <path id="Path_928" data-name="Path 928" d="M359.928-6.025h0A5.483,5.483,0,0,0,361.223-10a5.58,5.58,0,0,0-3.667,1.887,5.21,5.21,0,0,0-1.321,3.851A4.617,4.617,0,0,0,359.928-6.025Z" transform="translate(-346.132 10)" fill="#fff"/>
    <path id="Path_929" data-name="Path 929" d="M245.928,73a5.63,5.63,0,0,1,2.69-4.737,5.815,5.815,0,0,0-4.553-2.469c-1.939-.2-3.783,1.141-4.765,1.141s-2.5-1.112-4.108-1.082a6.094,6.094,0,0,0-5.151,3.12c-2.194,3.809-.56,9.452,1.578,12.542,1.046,1.511,2.293,3.213,3.93,3.151,1.578-.062,2.173-1.019,4.078-1.019s2.442,1.019,4.108.988c1.7-.031,2.773-1.542,3.811-3.059a13.625,13.625,0,0,0,1.723-3.541A5.5,5.5,0,0,1,245.928,73Z" transform="translate(-229 -59.668)" fill="#fff"/>
  </g>
</svg>
