<svg id="Apple_logo" data-name="Apple logo" xmlns="http://www.w3.org/2000/svg" width="30" height="30" viewBox="0 0 30 30">
  <rect id="Rectangle_2059" data-name="Rectangle 2059" width="30" height="30" fill="#fff" opacity="0"/>
  <g id="Group_997" data-name="Group 997" transform="translate(4.375 2.5)">
    <g id="Group_985" data-name="Group 985">
      <path id="Path_924" data-name="Path 924" d="M310.805,120.034a1.537,1.537,0,0,0-1.546,1.546v6.441a1.546,1.546,0,0,0,3.093,0V121.58A1.537,1.537,0,0,0,310.805,120.034Z" transform="translate(-309.259 -111.919)" fill="#fff"/>
      <path id="Path_925" data-name="Path 925" d="M518.028,120.034a1.537,1.537,0,0,0-1.546,1.546v6.441a1.546,1.546,0,0,0,3.093,0V121.58A1.537,1.537,0,0,0,518.028,120.034Z" transform="translate(-498.447 -111.919)" fill="#fff"/>
      <path id="Path_926" data-name="Path 926" d="M351.4,133.077a1.663,1.663,0,0,0,1.667,1.667h1.106v3.41a1.546,1.546,0,1,0,3.093,0v-3.41h2.06v3.41a1.546,1.546,0,1,0,3.093,0v-3.41h1.106a1.663,1.663,0,0,0,1.667-1.667v-10H351.4Z" transform="translate(-347.737 -114.7)" fill="#fff"/>
      <path id="Path_927" data-name="Path 927" d="M361.682,29.084l1.089-1.968a.221.221,0,0,0-.189-.327.216.216,0,0,0-.194.114l-1.1,1.989a7.433,7.433,0,0,0-5.968,0l-1.1-1.989a.217.217,0,0,0-.3-.085.213.213,0,0,0-.085.3l1.089,1.968a6.3,6.3,0,0,0-3.514,5.541H365.2A6.3,6.3,0,0,0,361.682,29.084Z" transform="translate(-347.737 -26.789)" fill="#fff"/>
    </g>
    <g id="Group_986" data-name="Group 986" transform="translate(6.805 4.424)">
      <ellipse id="Ellipse_6" data-name="Ellipse 6" cx="0.575" cy="0.575" rx="0.575" ry="0.575" transform="translate(0)" fill="#0032ff"/>
      <ellipse id="Ellipse_7" data-name="Ellipse 7" cx="0.575" cy="0.575" rx="0.575" ry="0.575" transform="translate(6.365)" fill="#0032ff"/>
    </g>
  </g>
</svg>
