<svg xmlns="http://www.w3.org/2000/svg" width="88.886" height="20" viewBox="0 0 88.886 20">
  <g id="Logo" transform="translate(-54.15 -52.952)">
    <g id="Group_737" data-name="Group 737" transform="translate(54.15 52.952)">
      <path id="Path_788" data-name="Path 788" d="M134.326,75.924c-2.892,0-4.968,2.337-4.968,5.406,0,3.228,2.057,5.425,5.065,5.425a4.642,4.642,0,0,0,4.5-2.97l-2.29-.831a2.136,2.136,0,0,1-2.193,1.525,2.533,2.533,0,0,1-2.484-2.535h7.025v-.812C138.984,78.221,137.353,75.924,134.326,75.924Zm-2.271,4.139a2.273,2.273,0,0,1,2.251-1.921,1.847,1.847,0,0,1,1.979,1.921Z" transform="translate(-117.159 -72.122)" fill="#fff"/>
      <path id="Path_789" data-name="Path 789" d="M205.08,75.924a3.564,3.564,0,0,0-2.795,1.267V76.122h-2.717V86.538h2.717v-6.02a1.892,1.892,0,0,1,1.883-2.06c1.164,0,1.63.832,1.63,2v6.079h2.717V79.667C208.516,77.409,207.215,75.924,205.08,75.924Z" transform="translate(-175.981 -72.122)" fill="#fff"/>
      <path id="Path_790" data-name="Path 790" d="M269.775,75.924c-2.892,0-4.968,2.337-4.968,5.406,0,3.228,2.057,5.425,5.065,5.425a4.642,4.642,0,0,0,4.5-2.97l-2.29-.831a2.136,2.136,0,0,1-2.193,1.525,2.533,2.533,0,0,1-2.484-2.535h7.025v-.812C274.433,78.221,272.8,75.924,269.775,75.924ZM267.5,80.063a2.273,2.273,0,0,1,2.251-1.921,1.847,1.847,0,0,1,1.979,1.921Z" transform="translate(-230.637 -72.122)" fill="#fff"/>
      <rect id="Rectangle_1903" data-name="Rectangle 1903" width="2.775" height="2.321" transform="translate(50.952 0.042)" fill="#fff"/>
      <path id="Path_791" data-name="Path 791" d="M337.61,56.952v-.416c0-1.03.446-1.287,1.3-1.287.291,0,.446,0,.7.02V52.992a9.555,9.555,0,0,0-1.048-.04c-2.5,0-3.668,1.228-3.668,3.426v10.99h2.717v-8.1h3.172v8.1H343.5V56.952H337.61Z" transform="translate(-289.792 -52.952)" fill="#fff"/>
      <path id="Path_792" data-name="Path 792" d="M402.193,73.731c-.849,0-1.367-.125-1.367-1.056V67.643h2.216V65.22h-2.216V62.729h-2.857V73.275c0,2.236,1.159,2.961,3.355,2.961a9.557,9.557,0,0,0,1.864-.166v-2.4A7.534,7.534,0,0,1,402.193,73.731Z" transform="translate(-342.527 -61.236)" fill="#fff"/>
      <path id="Path_793" data-name="Path 793" d="M62.592,60.981a3.162,3.162,0,0,0,1.941-3.049c0-2.436-1.611-3.782-4.638-3.782H54.15V68.368h6.094c2.95,0,4.716-1.485,4.716-3.98A3.429,3.429,0,0,0,62.592,60.981Zm-5.705-4.416h2.736c1.417,0,2.212.574,2.212,1.683,0,1.129-.8,1.683-2.212,1.683H56.886Zm3.163,9.366H56.886V62.289H60.05c1.4,0,2.154.752,2.154,1.822C62.2,65.2,61.447,65.932,60.05,65.932Z" transform="translate(-54.15 -53.943)" fill="#fff"/>
      <rect id="Rectangle_1904" data-name="Rectangle 1904" width="10.592" height="2.792" transform="translate(0 17.208)" fill="#fff"/>
    </g>
    <g id="Group_738" data-name="Group 738" transform="translate(117.661 56.751)">
      <path id="Path_794" data-name="Path 794" d="M548.019,105.761a.767.767,0,0,0-.764.645h1.439A.622.622,0,0,0,548.019,105.761Z" transform="translate(-529.486 -100.799)" fill="#fff"/>
      <path id="Path_795" data-name="Path 795" d="M489.386,105.761c-.484,0-.788.388-.788,1.027s.3,1.027.788,1.027.788-.388.788-1.027S489.869,105.761,489.386,105.761Z" transform="translate(-480.981 -100.799)" fill="#fff"/>
      <path id="Path_796" data-name="Path 796" d="M468.855,99.762h-.907v1.313h.907c.549,0,.842-.238.842-.657S469.4,99.762,468.855,99.762Z" transform="translate(-463.905 -95.838)" fill="#fff"/>
      <path id="Path_797" data-name="Path 797" d="M444.591,77.092V87.928h25.375V77.092Zm4.992,5.893h-.949v1.66h-.764V80.359h1.713c.955,0,1.552.447,1.552,1.313S450.538,82.985,449.583,82.985ZM453,84.71a1.634,1.634,0,1,1,1.51-1.63A1.5,1.5,0,0,1,453,84.71Zm3.651,0a1.632,1.632,0,0,1,0-3.259,1.313,1.313,0,0,1,1.307.883l-.6.328a.718.718,0,0,0-.7-.6c-.489,0-.824.376-.824,1.015s.334,1.009.824,1.009a.712.712,0,0,0,.7-.6l.615.31A1.329,1.329,0,0,1,456.647,84.71Zm4.032-.066-.937-1.415-.412.418v1h-.716V80.359h.716V82.83l1.206-1.319h.878l-1.182,1.218,1.278,1.916Zm3.842-1.409h-2.2a.848.848,0,0,0,.836.865.711.711,0,0,0,.728-.5l.615.233a1.386,1.386,0,0,1-1.343.877,1.507,1.507,0,0,1-1.522-1.63,1.524,1.524,0,0,1,1.492-1.63A1.388,1.388,0,0,1,464.521,83Zm2.17,1.4a2.884,2.884,0,0,1-.5.042c-.6,0-.919-.185-.919-.824V80.592h.7v.919h.657v.609h-.657v1.624c0,.28.161.31.418.31a2.235,2.235,0,0,0,.293-.018Z" transform="translate(-444.591 -77.092)" fill="#fff"/>
    </g>
  </g>
</svg>
