<svg xmlns="http://www.w3.org/2000/svg" width="350" height="720.002" viewBox="0 0 350 720.002">
  <g id="Phone_Frame" data-name="Phone Frame" transform="translate(0.109 0.001)">
    <path id="Frame" d="M-7747.108-9703h-270a39.747,39.747,0,0,1-15.57-3.144,39.871,39.871,0,0,1-12.715-8.572,39.865,39.865,0,0,1-8.573-12.715,39.749,39.749,0,0,1-3.144-15.57v-640a39.749,39.749,0,0,1,3.144-15.57,39.869,39.869,0,0,1,8.573-12.716,39.871,39.871,0,0,1,12.715-8.572,39.747,39.747,0,0,1,15.57-3.144h270a39.744,39.744,0,0,1,15.569,3.144,39.867,39.867,0,0,1,12.714,8.572,39.857,39.857,0,0,1,8.572,12.716,39.757,39.757,0,0,1,3.143,15.57v640a39.757,39.757,0,0,1-3.143,15.57,39.869,39.869,0,0,1-8.572,12.715,39.867,39.867,0,0,1-12.714,8.572A39.744,39.744,0,0,1-7747.108-9703Zm-264-704a29.813,29.813,0,0,0-11.678,2.357,29.9,29.9,0,0,0-9.536,6.431,29.881,29.881,0,0,0-6.43,9.535,29.816,29.816,0,0,0-2.358,11.678v628a29.816,29.816,0,0,0,2.358,11.678,29.881,29.881,0,0,0,6.43,9.535,29.9,29.9,0,0,0,9.536,6.431,29.813,29.813,0,0,0,11.678,2.357h258a29.807,29.807,0,0,0,11.677-2.357,29.906,29.906,0,0,0,9.537-6.431,29.9,29.9,0,0,0,6.429-9.535,29.809,29.809,0,0,0,2.358-11.678v-628a29.809,29.809,0,0,0-2.358-11.678,29.9,29.9,0,0,0-6.429-9.535,29.906,29.906,0,0,0-9.537-6.431,29.807,29.807,0,0,0-11.677-2.357Z" transform="translate(8057 10423)" fill="#fff"/>
    <path id="bar" d="M0,0H172a0,0,0,0,1,0,0V0a26,26,0,0,1-26,26H26A26,26,0,0,1,0,0V0A0,0,0,0,1,0,0Z" transform="translate(88.891 15)" fill="#fff"/>
  </g>
</svg>
